# xmcd CD database file
#
# Track frame offsets:
#	150
#	22680
#	57370
#	80125
#	102447
#	131615
#	152792
#	169435
#	195432
#	218535
#	242120
#
# Disc length: 3397 seconds
#
# Revision: 1
# Processed by: cddbd v1.5.2PL0 Copyright (c) Steve Scherf et al.
# Submitted via: CDex 1.51
#
DISCID=900d430b
DTITLE=Billy Squier - Happy Blue
DYEAR=1998
DGENRE=Blues
TTITLE0=Happy Blue
TTITLE1=The Pursuit Of Happiness
TTITLE2=She Will
TTITLE3=Grasping For Oblivion
TTITLE4=If You Would Hate Me Less,I would Love You More
TTITLE5=Stroke Me Blues
TTITLE6=More Than Words Can Say
TTITLE7=Inferno (Everybody Cries Sometimes)
TTITLE8=Long Way To Fail
TTITLE9=River
TTITLE10=Two
EXTD=YEAR: 1998
EXTT0=
EXTT1=
EXTT2=
EXTT3=
EXTT4=
EXTT5=
EXTT6=
EXTT7=
EXTT8=
EXTT9=
EXTT10=
PLAYORDER=
